Set within a year after the events of Batman Begins, Batman, Lieutenant James Gordon, and new district attorney Harvey Dent successfully begin to round up the criminals that plague Gotham City until a mysterious and sadistic criminal mastermind known only as the Joker appears in Gotham, creating a new wave of chaos. Batman's struggle against the Joker becomes deeply personal, forcing him to "confront everything he believes" and improve his technology to stop him. A love triangle develops between Bruce Wayne, Dent and Rachel Dawes.

General
ID                               : 1
Complete name                    : The Dark Knight.m2ts
Format                           : BDAV
Format/Info                      : Blu-ray Video
File size                        : 3.99 GiB
Duration                         : 2h 32mn
Overall bit rate                 : 3 755 Kbps
Maximum Overall bit rate         : 35.5 Mbps

Video
ID                               : 4113 (0x1011)
Menu ID                          : 1 (0x1)
Format                           : AVC
Format/Info                      : Advanced Video Codec
Format profile                   : High@L4.0
Format settings, CABAC           : Yes
Format settings, ReFrames        : 3 frames
Duration                         : 2h 32mn
Bit rate                         : 2 957 Kbps
Nominal bit rate                 : 2 858 Kbps
Width                            : 1 280 pixels
Height                           : 720 pixels
Display aspect ratio             : 16:9
Frame rate                       : 23.976 fps
Resolution                       : 8 bits
Colorimetry                      : 4:2:0
Scan type                        : Progressive
Bits/(Pixel*Frame)               : 0.134
Stream size                      : 3.14 GiB (79%)
Writing library                  : x264 core 80 r1376kGIT 3feaec2


Audio
ID                               : 4352 (0x1100)
Menu ID                          : 1 (0x1)
Format                           : AC-3
Format/Info                      : Audio Coding 3
Duration                         : 2h 32mn
Bit rate mode                    : Constant
Bit rate                         : 640 Kbps
Channel(s)                       : 6 channels
Channel positions                : Front: L C R, Side: L R, LFE
Sampling rate                    : 48.0 KHz
Stream size                      : 697 MiB (17%)
 
http://bayimg.com/GALAIaaCk
http://bayimg.com/GaLAlAAcK
http://bayimg.com/GalANaaCK